<svg xmlns="http://www.w3.org/2000/svg" viewBox="0 0 496 496" width="50" height="50" fill="#ffffff">
	<path d="M472,32h-72V0H100.688L0,100.688V496h400V192h72c13.232,0,24-10.768,24-24V56C496,42.768,485.232,32,472,32z M96,27.312
	V96H27.312L96,27.312z M384,480H16V112h96V16h272v16H184c-13.232,0-24,10.768-24,24v112c0,13.232,10.768,24,24,24h200V480z
	 M480,168c0,4.408-3.584,8-8,8H184c-4.416,0-8-3.592-8-8V56c0-4.408,3.584-8,8-8h288c4.416,0,8,3.592,8,8V168z"/>
	<rect x="32" y="128" width="16" height="16"/>
	<rect x="64" y="128" width="16" height="16"/>
	<rect x="32" y="160" width="16" height="16"/>
	<path d="M388,64h-24c-15.44,0-28,12.56-28,28s12.56,28,28,28h24c6.616,0,12,5.384,12,12c0,6.616-5.384,12-12,12h-24
	c-6.616,0-12-5.384-12-12v-4h-16v4c0,15.44,12.56,28,28,28h24c15.44,0,28-12.56,28-28s-12.56-28-28-28h-24
	c-6.616,0-12-5.384-12-12c0-6.616,5.384-12,12-12h24c6.616,0,12,5.384,12,12v4h16v-4C416,76.56,403.44,64,388,64z"/>
	<path d="M32,464h336V208H32V464z M48,224h304v224H48V224z"/>
	<path d="M304,120c0,13.232-10.768,24-24,24s-24-10.768-24-24h-16c0,22.056,17.944,40,40,40c22.056,0,40-17.944,40-40V64h-16V120z"/>
	<path d="M280,240H168c-17.648,0-32,14.352-32,32v96H88v32c0,17.648,14.352,32,32,32h112c17.648,0,32-14.352,32-32v-96h48v-32
	C312,254.352,297.648,240,280,240z M120,416c-8.824,0-16-7.176-16-16v-16h96v16c0,5.824,1.56,11.288,4.296,16H120z M248,272v128
	c0,8.824-7.176,16-16,16c-8.824,0-16-7.176-16-16v-32h-64v-96c0-8.824,7.176-16,16-16h84.448
	C249.696,260.728,248,266.144,248,272z M296,288h-32v-16c0-8.824,7.176-16,16-16c8.824,0,16,7.176,16,16V288z"/>
	<rect x="168" y="272" width="64" height="16"/>
	<rect x="168" y="304" width="64" height="16"/>
	<rect x="168" y="336" width="32" height="16"/>
	<rect x="216" y="336" width="16" height="16"/>
</svg>